<svg id="Layer_1" data-name="Layer 1" xmlns="http://www.w3.org/2000/svg" viewBox="0 0 192.82 213.25"><defs><style>.cls-1,.cls-2{fill:#ff7bac;}.cls-2{stroke:#ff7bac;stroke-miterlimit:10;stroke-width:0.93px;}.cls-3{fill:none;}</style></defs><path class="cls-1" d="M174,260.83c-6.67,1.31-11.11-.43-14-6.52l3.45-1.5c-10.46-5.81-16.22-19-32.22-15.69l5.52-16.75,4.37,5.34.87-.34c-1.39-3.52-2.76-7.06-4.17-10.57-5.68-14.15-4.26-27.65,3.23-40.64,2.26,4,4.3,7.7,6.51,11.34,1.57,2.6,1,4.2-1.68,5.56a17.79,17.79,0,0,0-6.31,5.13c4.3-.89,8.57-2.25,12.91-2.52a27,27,0,0,1,9.66,1.69c4.23,1.37,8.27,3.32,12.6,5.1l-2.08,4.82c8.16-4.89,14.86-1.7,21.47,3,1.92,1.37,4.23,2.19,6.85,3.52-5.27,5.24-14.41,6.66-12.8,16,3.6-2.24,7-4.33,10.41-6.53a39.46,39.46,0,0,0,6-4.33c4.09-3.89,5.61-4.17,9.45-.25,8.64,8.8,13.64,19.11,11.5,31.76-1.25,7.44-3.17,8.12-10.07,5-3.82-1.71-7.8-3.07-11.71-4.59l-.44,1.16,17.61,10.07c.51.29,1.31.65,1.36,1.06.85,6.4,4.38,12.62,1.66,19.53l-26-8.44-.77.82c1.71,1.4,3.24,3.17,5.17,4.13,5.11,2.53,10.46,4.56,15.56,7.11,1.61.81,2.72,2.63,4,4-1.52,1.15-2.94,3.06-4.59,3.3-6.74,1-13.56,1.4-21.14,2.1,2.44,1,4.5,2.2,6.71,2.71a29.49,29.49,0,0,0,6.91.48c4.22-.06,7,1.25,6.33,6.41l1.14.14c.83-1.8,1.55-3.65,2.51-5.37s2.06-3.09,3.11-4.63l2.17.82c-.51,2.6-.17,6.06-1.73,7.6-2.32,2.3-2.91,4.74-3.58,7.57-1.31,5.63-5.34,7.66-10.93,5.59a73.85,73.85,0,0,0,1.57-7.47c.37-3.38-1.1-5.3-4.82-5a60.89,60.89,0,0,1-6.48.15c-1.94-.05-3.88-.29-6.1.56,2.7.76,5.36,1.93,8.11,2.21,6.64.65,7,1.08,4.78,8.15-6.86-.14-13.39-1.59-18.87-6.05-2.5-2-5.56-4-3.77-8.37.48-1.17-1-3.1-1.51-4.71-.81-2.58-1.55-5.17-2.46-8.25l25.85-2.2.32-.71c-2.35-.71-4.66-1.81-7.06-2.06-4.76-.48-9.74.24-14.29-.91a51.88,51.88,0,0,1-14-6.32c-3.29-2-3.49-5.13-.18-8C171.55,264.58,172.66,262.58,174,260.83Zm-1.15-36.18c-8.54-2.83-10.46-5.4-10.38-13.83.06-4.86-1.9-8.06-6.64-8.48-5.08-.46-10.27.33-15.42.57l.08,1.79c4,.19,8,0,11.88.76a6.44,6.44,0,0,1,4,4c.35,1.21-1.19,3.24-2.32,4.54-1.8,2.08-4,3.86-6,5.76,2.87.37,4.77-.35,6.72-.57a4.74,4.74,0,0,1,3,1.19c3.78,3,7.27,6.51,11.27,9.22,3,2.05,6.73,3.05,10,4.82,1.34.74,2.26,2.25,3.38,3.42-1.4,1-2.69,2.7-4.22,3A34.82,34.82,0,0,1,169,241c-8.58-.82-14.72-5.59-19.44-13.68-1.22,6.53,1.17,10.62,5.11,13.86,6.42,5.3,13.84,6.11,21.84,4.63,2.2-.41,5.18-.3,6.85.9,4.47,3.19,4.3,11.73.31,15.56-2.88,2.77-5.59,5.72-3.93,10.18,3-2.65,5.76-5.31,8.78-7.57a6.25,6.25,0,0,1,4.54-1.22c8.31,2,16.55,4.34,24.81,6.56a28.13,28.13,0,0,0-8.92-6.19c-3.64-1.62-7.68-2.39-11.26-4.11-5.84-2.8-9-12.11-6.53-18,2.32-5.53,8.67-7.72,15.86-5.19a93.17,93.17,0,0,1,8.76,4.07c-3.71-8.78-13.37-12.15-22.56-8.11-7.49,3.28-13.93-.27-15.21-8.49-.35-2.2-.38-4.46-.55-6.69l-.9-.32Z" transform="translate(-131.26 -102.56)"/><path class="cls-2" d="M179.27,137.46c-3.38.91-6.72,2.18-10.15,2.6-2,.25-5.52-.35-5.94-1.47-1.17-3.14,1.95-3.89,4.28-4.68,1.89-.64,3.86-1.09,5.74-1.76,6.18-2.21,8.79-6.16,7.31-12.52-.85-3.63.15-5.9,2.74-8,1.2-1,2.31-2.06,3.55-3,8.95-6.45,17.48-3.47,20.25,7.22.41,1.56-.46,3.45-.71,5,4.7-1.25,6-3.74,3.87-8.32-.84-1.82-1.78-3.59-2.62-5.4a5,5,0,0,1-.24-1.34c4.83-3,10.7-3,13.08.23,3.38,4.64.13,8-2.77,11.7l-3.25-.82c-.08.29-.32.7-.22.81,7.15,8.1,8.29,17.64,6.53,27.79-1.07,6.11-1.49,6.26-7.57,4.92l-2.28-.5c2.72,2.93,5.37,6,8.29,8.86,2.12,2,2.26,3.94.42,6-3,3.4-2.49,6.48.18,9.91,3.54,4.55,2.62,9.47.41,14.66-3.41-.91-6.71-1.61-9.86-2.72-1-.35-1.82-1.68-2.37-2.74-1.6-3.08-2.68-6.49-4.6-9.34-2.17-3.23-2.77-6-.31-9.27,2.31-3,2.52-6.26,1.4-10-.58-1.94.25-4.8,1.4-6.63,1.68-2.67,4.22-4.79,6.39-7.14l-.71-.92c-2.88,2.1-6.15,3.83-8.52,6.4-2.58,2.82-4.9,5.32-9.32,5a33.62,33.62,0,0,0,2.7,2.05c3.06,1.95,3.68,4.63,1.77,7.52-3.9,5.93-4,11.34.9,16.87,1,1.12.7,3.62.56,5.46-.32,4.31-.91,8.6-1.52,14,1.87-1,2.34-1.1,2.54-1.38,5.28-7.55,9.65-7.85,16.44-1.49,7.17,6.72,9.14,15,8.25,24.84-4.47-3.09-8.85-5.83-12.8-9.08-.94-.78-.46-3.28-.69-5.51-10.57,6.06-18.2-.13-25.43-7-4.35-4.1-5.6-9.32-2.76-14.8a27.29,27.29,0,0,0,.83-24.94c-1.33-3-.31-5,1.69-7.44,3.16-3.85,5.65-8.24,8.46-12.38a23,23,0,0,1,2.44-3.25c2.33-2.42,4.65-4.86,7.19-7.05a47.51,47.51,0,0,1,5.67-3.6c-1.71-1.63-3.95-1.69-6.41.78-1.73,1.75-3.34,3.77-5.4,5-1.45.84-4.88,1.17-5.18.58a12.64,12.64,0,0,1-1.19-6.68c.15-1.48,2.06-2.7,2.66-4.23a14.14,14.14,0,0,0,1-7.13c-2.19,3-4.71,5.94-6.44,9.23-1.09,2.09-1.87,5-1.27,7.19,2.94,10.42,1,16-8.42,21.11-.75.41-2,.08-3-.07a19.81,19.81,0,0,0-7.4-.22,5.66,5.66,0,0,0,1.53,1c4.38,1,6.51,3.54,8.41,7.92,3.15,7.28,2.59,13.58-.82,20.28-2.94,5.79-2.82,11.6,1.15,17.13l-.81,1c-4.24-2.37-8.78-4.36-12.65-7.25-3.12-2.32-.69-4.1,2.42-5l-1.15-1.39-7.62,3.21.36,1.44c-6.53-2.22-10.93-6.6-12.73-13.36-1.11-4.18.41-6.32,5.07-7.7,1.53,2.92,3.08,5.9,4.15,7.93,1.25-4.69,2.6-9.52,3.78-14.39a7.46,7.46,0,0,0-.15-3.57c-1.66-6,.57-11,6.33-13.48,2.83-1.2,5.85-2,8.68-3.18a40.88,40.88,0,0,0,4.84-2.85Zm-9.85,44.46c2.57-15.42,2.39-16.33-4.12-17.73C169.31,169.63,163,176.69,169.42,181.92Z" transform="translate(-131.26 -102.56)"/><path class="cls-1" d="M133.1,240.87c10.09-1.45,17.12,2,18.32,8.59l-6.76,4.15c1.12.51,1.4.77,1.62.72,7.55-1.83,13.05,1.1,15.26,8.63.4,1.38-.87,4.62-1.72,4.75-3.4.53-7.88,1.54-10.24-.1C140.41,261.23,135.74,251.69,133.1,240.87Z" transform="translate(-131.26 -102.56)"/><path class="cls-2" d="M158,273.93l4.62-.55c4,3.8,7.47,6.93,10.73,10.27a8.69,8.69,0,0,1,1.77,3.75c.92,3.44,1.65,6.93,2.41,10.17C170.28,297.5,158.55,284.21,158,273.93Z" transform="translate(-131.26 -102.56)"/><path class="cls-2" d="M144.24,164.07c.64-3.2.69-6.5,2-9.21,2.54-5.35,5.74-10.4,8.76-15.53.9-1.53,2.11-2.89,3.59-4.88,1.69,5,0,8.63-1.27,12.52a37.92,37.92,0,0,0-2,10.53C155.1,161.86,152.06,164.14,144.24,164.07Z" transform="translate(-131.26 -102.56)"/><path class="cls-2" d="M161.21,131.39c2.21-7.43,7.22-10.53,14.34-13,0,2.85.9,5.79-.17,7.48C172.33,130.68,166.9,130.61,161.21,131.39Z" transform="translate(-131.26 -102.56)"/><path class="cls-3" d="M172.86,224.65l3.72-7.46.9.32c.17,2.23.2,4.49.55,6.69,1.28,8.22,7.72,11.77,15.21,8.49,9.19-4,18.85-.67,22.56,8.11a93.17,93.17,0,0,0-8.76-4.07c-7.19-2.53-13.54-.34-15.86,5.19-2.48,5.92.69,15.23,6.53,18,3.58,1.72,7.62,2.49,11.26,4.11a28.13,28.13,0,0,1,8.92,6.19c-8.26-2.22-16.5-4.55-24.81-6.56a6.25,6.25,0,0,0-4.54,1.22c-3,2.26-5.75,4.92-8.78,7.57-1.66-4.46,1.05-7.41,3.93-10.18,4-3.83,4.16-12.37-.31-15.56-1.67-1.2-4.65-1.31-6.85-.9-8,1.48-15.42.67-21.84-4.63-3.94-3.24-6.33-7.33-5.11-13.86,4.72,8.09,10.86,12.86,19.44,13.68a34.82,34.82,0,0,0,9.18-.25c1.53-.27,2.82-1.94,4.22-3-1.12-1.17-2-2.68-3.38-3.42-3.24-1.77-6.95-2.77-10-4.82-4-2.71-7.49-6.18-11.27-9.22a4.74,4.74,0,0,0-3-1.19c-2,.22-3.85.94-6.72.57,2-1.9,4.17-3.68,6-5.76,1.13-1.3,2.67-3.33,2.32-4.54a6.44,6.44,0,0,0-4-4c-3.87-.74-7.91-.57-11.88-.76l-.08-1.79c5.15-.24,10.34-1,15.42-.57,4.74.42,6.7,3.62,6.64,8.48C162.4,219.25,164.32,221.82,172.86,224.65Z" transform="translate(-131.26 -102.56)"/><path class="cls-1" d="M285.41,265.38c3.31,2.91,3.11,6-.18,8a52.08,52.08,0,0,1-14,6.33c-4.54,1.15-9.53.42-14.28.91-2.4.24-4.71,1.34-7.07,2.06l.33.71L276,285.61c-.91,3.08-1.65,5.68-2.46,8.25-.5,1.61-2,3.55-1.51,4.71,1.79,4.39-1.28,6.33-3.78,8.37-5.48,4.47-12,5.91-18.86,6.05-2.25-7.07-1.86-7.49,4.78-8.15,2.74-.27,5.4-1.45,8.1-2.21-2.21-.85-4.15-.6-6.09-.56a60.88,60.88,0,0,1-6.48-.14c-3.72-.31-5.2,1.6-4.82,5a75,75,0,0,0,1.57,7.47c-5.59,2.07-9.63,0-10.94-5.6-.66-2.83-1.26-5.26-3.58-7.57-1.55-1.54-1.22-5-1.73-7.6l2.18-.82c1,1.54,2.2,3,3.11,4.63s1.68,3.58,2.5,5.37l1.15-.14c-.68-5.16,2.11-6.47,6.33-6.41a28.88,28.88,0,0,0,6.9-.48c2.21-.51,4.27-1.69,6.72-2.71-7.58-.7-14.4-1.14-21.15-2.1-1.65-.23-3.06-2.15-4.58-3.29,1.33-1.36,2.43-3.18,4-4,5.1-2.55,10.46-4.59,15.57-7.12,1.93-1,3.45-2.73,5.16-4.12l-.76-.83-26,8.44c-2.71-6.91.82-13.13,1.66-19.53.06-.41.86-.76,1.36-1q8.81-5.06,17.62-10.08l-.45-1.15c-3.9,1.51-7.88,2.87-11.7,4.58-6.9,3.09-8.82,2.41-10.08-5-2.14-12.65,2.87-23,11.5-31.76,3.84-3.92,5.37-3.64,9.45.26a41.23,41.23,0,0,0,6,4.33c3.37,2.19,6.81,4.28,10.41,6.53,1.62-9.36-7.53-10.78-12.8-16,2.63-1.32,4.93-2.15,6.86-3.51,6.6-4.67,13.3-7.87,21.47-3l-2.08-4.81c4.33-1.79,8.37-3.73,12.59-5.11a27,27,0,0,1,9.67-1.68c4.34.27,8.61,1.62,12.9,2.51a17.92,17.92,0,0,0-6.31-5.13c-2.63-1.36-3.25-3-1.67-5.55,2.21-3.65,4.25-7.4,6.5-11.35,7.5,13,8.92,26.49,3.24,40.64-1.41,3.52-2.79,7.05-4.18,10.57l.88.34,4.37-5.34,5.52,16.75c-16-3.29-21.76,9.88-32.22,15.69l3.44,1.5c-2.86,6.1-7.31,7.84-14,6.53C282.67,262,283.79,264,285.41,265.38Zm-6.65-48.82-.9.32c-.18,2.24-.21,4.49-.55,6.7-1.29,8.21-7.72,11.77-15.21,8.48-9.2-4-18.86-.67-22.57,8.11,3.06-1.44,5.81-3,8.76-4.07,7.2-2.52,13.54-.33,15.87,5.2,2.48,5.91-.7,15.22-6.53,18-3.59,1.72-7.62,2.49-11.26,4.11a27.94,27.94,0,0,0-8.92,6.2c8.26-2.23,16.5-4.55,24.81-6.57a6.22,6.22,0,0,1,4.53,1.22c3,2.27,5.76,4.92,8.78,7.57,1.66-4.45-1-7.4-3.92-10.17-4-3.84-4.16-12.37.3-15.57,1.67-1.2,4.66-1.31,6.85-.9,8,1.48,15.43.67,21.85-4.62,3.93-3.24,6.33-7.33,5.11-13.86-4.72,8.09-10.87,12.85-19.44,13.67a34.81,34.81,0,0,1-9.18-.25c-1.54-.26-2.82-1.93-4.22-3,1.11-1.16,2-2.68,3.38-3.41,3.24-1.77,6.95-2.77,10-4.82,4-2.72,7.48-6.18,11.27-9.22a4.61,4.61,0,0,1,3-1.19c1.95.21,3.85.93,6.72.56-2-1.9-4.17-3.68-6-5.76-1.12-1.3-2.66-3.33-2.31-4.54a6.44,6.44,0,0,1,4-4c3.87-.73,7.91-.56,11.88-.76l.07-1.78c-5.14-.25-10.33-1-15.42-.58-4.73.42-6.69,3.63-6.64,8.48.09,8.44-1.84,11-10.37,13.83Z" transform="translate(-131.26 -102.56)"/><path class="cls-2" d="M275.69,137.56a39.44,39.44,0,0,0,4.83,2.85c2.84,1.2,5.85,2,8.69,3.18,5.76,2.44,8,7.44,6.33,13.48a7.46,7.46,0,0,0-.15,3.57c1.18,4.87,2.53,9.7,3.78,14.4l4.15-7.94c4.66,1.38,6.18,3.52,5.07,7.7-1.8,6.76-6.2,11.15-12.73,13.37l.36-1.44-7.63-3.22-1.14,1.39c3.11.94,5.54,2.72,2.42,5-3.87,2.88-8.41,4.87-12.66,7.25l-.8-1c4-5.53,4.08-11.35,1.15-17.13-3.41-6.71-4-13-.82-20.29,1.89-4.38,4-6.9,8.4-7.92a5.56,5.56,0,0,0,1.54-1,20.08,20.08,0,0,0-7.41.23c-1,.14-2.19.48-2.94.07-9.39-5.17-11.36-10.7-8.43-21.12.6-2.14-.18-5.1-1.27-7.18-1.72-3.3-4.25-6.18-6.44-9.24a14.24,14.24,0,0,0,.95,7.13c.61,1.54,2.52,2.76,2.66,4.24a12.47,12.47,0,0,1-1.19,6.68c-.29.58-3.72.25-5.17-.59-2.07-1.2-3.68-3.22-5.41-5-2.45-2.47-4.7-2.42-6.4-.78a45,45,0,0,1,5.66,3.6c2.54,2.18,4.87,4.62,7.2,7a24.4,24.4,0,0,1,2.44,3.25c2.8,4.14,5.29,8.54,8.46,12.38,2,2.43,3,4.46,1.69,7.44-3.76,8.43-3.46,16.69.82,24.95,2.84,5.47,1.59,10.69-2.75,14.79-7.24,6.83-14.87,13-25.43,7-.23,2.23.25,4.74-.7,5.51-3.95,3.26-8.32,6-12.79,9.09-.9-9.82,1.08-18.13,8.25-24.85,6.79-6.36,11.16-6.06,16.44,1.49.2.29.67.38,2.54,1.38-.61-5.39-1.2-9.69-1.53-14-.14-1.83-.42-4.34.57-5.45,4.94-5.53,4.79-10.95.89-16.87-1.9-2.9-1.28-5.58,1.78-7.52.95-.61,1.8-1.37,2.7-2.06-4.42.31-6.74-2.19-9.33-5-2.36-2.57-5.64-4.31-8.51-6.41l-.72.92c2.18,2.36,4.72,4.48,6.39,7.14,1.16,1.84,2,4.69,1.41,6.63-1.13,3.78-.92,7,1.39,10,2.46,3.25,1.87,6.05-.3,9.27-1.92,2.86-3,6.26-4.6,9.34-.56,1.07-1.38,2.39-2.38,2.75-3.15,1.1-6.44,1.81-9.85,2.71-2.22-5.18-3.14-10.1.41-14.66,2.67-3.43,3.21-6.51.18-9.91-1.84-2.07-1.7-4,.41-6,2.93-2.82,5.58-5.93,8.3-8.86l-2.29.51c-6.08,1.33-6.49,1.18-7.56-4.93-1.77-10.15-.62-19.69,6.53-27.78.1-.12-.14-.53-.23-.82l-3.24.83c-2.9-3.66-6.16-7.07-2.78-11.71,2.39-3.26,8.26-3.22,13.08-.23a5.37,5.37,0,0,1-.23,1.34c-.84,1.81-1.78,3.58-2.62,5.4-2.11,4.59-.83,7.07,3.87,8.32-.25-1.59-1.12-3.48-.71-5,2.77-10.69,11.3-13.66,20.24-7.22,1.25.9,2.36,2,3.56,3,2.59,2.1,3.59,4.36,2.74,8-1.48,6.35,1.13,10.3,7.3,12.51,1.89.68,3.85,1.12,5.75,1.76,2.33.79,5.45,1.55,4.27,4.68-.42,1.13-3.95,1.72-5.93,1.48-3.44-.43-6.77-1.7-10.15-2.61Zm14.34,26c-6.5,1.4-6.69,2.3-4.11,17.72C292.38,176.06,286,169,290,163.57Z" transform="translate(-131.26 -102.56)"/><path class="cls-1" d="M322.23,240.25c-10.08-1.46-17.12,2-18.31,8.59l6.76,4.14c-1.12.51-1.41.77-1.62.72-7.55-1.83-13.06,1.1-15.26,8.63-.4,1.38.87,4.62,1.72,4.75,3.39.53,7.88,1.55,10.24-.09C314.93,260.6,319.59,251.07,322.23,240.25Z" transform="translate(-131.26 -102.56)"/><path class="cls-2" d="M297.39,273.31l-4.62-.56c-4,3.8-7.48,6.94-10.73,10.28a8.53,8.53,0,0,0-1.77,3.75c-.92,3.44-1.66,6.92-2.41,10.17C285.05,296.87,296.79,283.58,297.39,273.31Z" transform="translate(-131.26 -102.56)"/><path class="cls-2" d="M311.09,163.45c-.64-3.21-.68-6.51-2-9.21-2.55-5.36-5.74-10.41-8.76-15.54-.9-1.53-2.11-2.89-3.59-4.88-1.7,5,0,8.63,1.27,12.52a37.92,37.92,0,0,1,2,10.53C300.24,161.24,303.28,163.52,311.09,163.45Z" transform="translate(-131.26 -102.56)"/><path class="cls-2" d="M294.12,130.77c-2.2-7.44-7.22-10.54-14.33-13,0,2.85-.9,5.8.17,7.48C283,130.06,288.43,130,294.12,130.77Z" transform="translate(-131.26 -102.56)"/><path class="cls-3" d="M282.48,224l-3.72-7.46-.9.32c-.18,2.24-.21,4.49-.55,6.7-1.29,8.21-7.72,11.77-15.21,8.48-9.2-4-18.86-.67-22.57,8.11,3.06-1.44,5.81-3,8.76-4.07,7.2-2.52,13.54-.33,15.87,5.2,2.48,5.91-.7,15.22-6.53,18-3.59,1.72-7.62,2.49-11.26,4.11a27.94,27.94,0,0,0-8.92,6.2c8.26-2.23,16.5-4.55,24.81-6.57a6.22,6.22,0,0,1,4.53,1.22c3,2.27,5.76,4.92,8.78,7.57,1.66-4.45-1-7.4-3.92-10.17-4-3.84-4.16-12.37.3-15.57,1.67-1.2,4.66-1.31,6.85-.9,8,1.48,15.43.67,21.85-4.62,3.93-3.24,6.33-7.33,5.11-13.86-4.72,8.09-10.87,12.85-19.44,13.67a34.81,34.81,0,0,1-9.18-.25c-1.54-.26-2.82-1.93-4.22-3,1.11-1.16,2-2.68,3.38-3.41,3.24-1.77,6.95-2.77,10-4.82,4-2.72,7.48-6.18,11.27-9.22a4.61,4.61,0,0,1,3-1.19c1.95.21,3.85.93,6.72.56-2-1.9-4.17-3.68-6-5.76-1.12-1.3-2.66-3.33-2.31-4.54a6.44,6.44,0,0,1,4-4c3.87-.73,7.91-.56,11.88-.76l.07-1.78c-5.14-.25-10.33-1-15.42-.58-4.73.42-6.69,3.63-6.64,8.48C292.94,218.63,291,221.19,282.48,224Z" transform="translate(-131.26 -102.56)"/></svg>